<?xml version="1.0" encoding="UTF-8" standalone="no"?><svg xmlns="http://www.w3.org/2000/svg" xmlns:xlink="http://www.w3.org/1999/xlink" fill="#ffffff" height="357.2" preserveAspectRatio="xMidYMid meet" version="1" viewBox="5.1 77.4 501.7 357.2" width="501.7" zoomAndPan="magnify"><g id="change1_1"><path d="M416.6269531,434.6103516H95.3730469c-49.7607422,0-90.2441406-40.4829102-90.2441406-90.2436523V167.6333008 c0-49.7607422,40.4833984-90.2436523,90.2441406-90.2436523h321.2539062c49.7607422,0,90.2441406,40.4829102,90.2441406,90.2436523 v176.7333984C506.8710938,394.1274414,466.3876953,434.6103516,416.6269531,434.6103516z M95.3730469,97.3896484 c-38.7324219,0-70.2441406,31.5112305-70.2441406,70.2436523v176.7333984c0,38.7324219,31.5117188,70.2436523,70.2441406,70.2436523 h321.2539062c38.7324219,0,70.2441406-31.5112305,70.2441406-70.2436523V167.6333008 c0-38.7324219-31.5117188-70.2436523-70.2441406-70.2436523H95.3730469z M213.1650391,335.6762695 c-4.2871094,0-8.5742188-1.128418-12.4833984-3.3842773c-7.8154297-4.5131836-12.4824219-12.5952148-12.4824219-21.6206055 V187.3178711c0-9.0253906,4.6660156-17.1079102,12.4824219-21.6206055 c7.8164062-4.5117188,17.1494141-4.5131836,24.9658203,0.0004883l106.8271484,61.6762695 c7.8164062,4.5126953,12.4824219,12.5952148,12.4824219,21.6206055s-4.6660156,17.1079102-12.4824219,21.6206055l0,0 l-106.8271484,61.6762695C221.7392578,334.5478516,217.4521484,335.6762695,213.1650391,335.6762695z M213.1894531,182.3349609 c-1.1455078,0-2.0537109,0.4213867-2.5078125,0.6831055c-0.7460938,0.4311523-2.4824219,1.7124023-2.4824219,4.2998047v123.3535156 c0,2.5869141,1.7363281,3.8686523,2.4824219,4.2998047c0.7470703,0.4311523,2.7275391,1.2919922,4.9658203,0l106.8271484-61.6762695 c2.2402344-1.2939453,2.4824219-3.4384766,2.4824219-4.300293s-0.2421875-3.0063477-2.4824219-4.300293l-106.8271484-61.6762695 C214.7685547,182.5107422,213.9296875,182.3349609,213.1894531,182.3349609z M327.4746094,261.9550781h0.0097656H327.4746094z" fill="inherit"/></g></svg>